<?xml version="1.0" standalone="no"?>
<!DOCTYPE svg PUBLIC "-//W3C//DTD SVG 20010904//EN"
 "http://www.w3.org/TR/2001/REC-SVG-20010904/DTD/svg10.dtd">
<svg version="1.0" xmlns="http://www.w3.org/2000/svg"
 width="219.000000pt" height="163.000000pt" viewBox="0 0 219.000000 163.000000"
 preserveAspectRatio="xMidYMid meet">

<g transform="translate(0.000000,163.000000) scale(0.100000,-0.100000)"
fill="#000000" stroke="none">
<path d="M1925 1580 c11 -18 -17 -119 -34 -123 -9 -3 5 -5 31 -6 56 -1 75 5
89 31 7 14 7 23 -2 34 -9 11 -9 17 1 29 10 12 10 18 0 30 -14 17 -95 22 -85 5z
m70 -10 c9 -15 -14 -40 -36 -40 -20 0 -23 8 -13 34 7 18 39 22 49 6z m0 -60
c3 -5 1 -19 -5 -30 -14 -25 -76 -30 -66 -4 3 9 6 22 6 30 0 16 55 20 65 4z"/>
<path d="M1097 815 c-466 -311 -847 -567 -847 -570 0 -3 385 -5 855 -5 l855 0
0 570 c0 314 -3 570 -8 570 -4 0 -388 -254 -855 -565z m853 65 l0 -490 -70 0
-70 0 0 -70 0 -70 -767 0 c-421 0 -763 3 -760 7 7 6 1659 1111 1665 1112 1 1
2 -219 2 -489z m0 -565 l0 -65 -65 0 -65 0 0 65 0 65 65 0 65 0 0 -65z"/>
<path d="M512 387 c-29 -35 -21 -110 14 -124 23 -9 44 23 44 65 0 59 -31 91
-58 59z m38 -23 c13 -34 13 -34 -15 -34 -25 0 -31 13 -19 44 9 24 23 19 34
-10z m6 -60 c-3 -9 -6 -20 -6 -25 0 -15 -27 -10 -34 7 -11 27 -7 34 20 34 20
0 25 -4 20 -16z"/>
<path d="M1076 951 c-10 -11 -16 -30 -14 -43 2 -19 9 -23 41 -24 21 -1 34 2
27 6 -8 5 -8 14 0 35 8 22 8 30 -2 37 -20 12 -33 10 -52 -11z m44 -9 c0 -10
-6 -27 -14 -38 -21 -28 -40 -7 -27 29 12 30 41 37 41 9z"/>
<path d="M2055 844 c-22 -22 -16 -68 10 -72 18 -2 18 -2 3 8 -22 13 -23 30 -3
56 13 16 16 17 25 4 8 -13 10 -13 10 3 0 21 -23 22 -45 1z"/>
<path d="M79 295 c-37 -20 -54 -71 -34 -102 10 -15 24 -23 43 -22 27 1 27 1 3
8 -39 11 -48 34 -28 75 20 44 58 57 87 31 19 -17 20 -17 20 -1 0 9 -4 15 -9
11 -5 -3 -12 -1 -16 5 -9 14 -35 12 -66 -5z"/>
<path d="M2110 290 c-8 -15 -8 -20 -1 -16 7 5 11 -4 11 -23 0 -25 -4 -31 -20
-31 -18 0 -19 3 -10 20 6 11 8 20 6 20 -3 0 -12 -13 -21 -29 -8 -16 -22 -36
-30 -45 -15 -15 -15 -16 3 -16 13 0 19 6 18 18 -1 12 8 18 32 20 23 2 32 -1
32 -12 0 -8 -6 -17 -12 -19 -7 -3 0 -6 17 -6 22 -1 26 2 17 11 -7 7 -12 32
-12 57 0 60 -13 82 -30 51z"/>
<path d="M129 193 c-13 -16 -12 -17 4 -4 9 7 17 15 17 17 0 8 -8 3 -21 -13z"/>
<path d="M1084 148 c-1 -13 -4 -42 -9 -65 -6 -36 -5 -44 10 -49 12 -5 23 -1
31 11 18 25 18 64 -1 71 -8 4 -15 17 -15 30 0 30 -15 32 -16 2z m36 -54 c0
-21 -18 -54 -30 -54 -13 0 -13 26 0 51 13 23 30 25 30 3z"/>
</g>
</svg>
